<svg width="1496" height="1803" viewBox="0 0 1496 1803" fill="none" xmlns="http://www.w3.org/2000/svg">
<path fill-rule="evenodd" clip-rule="evenodd" d="M1213.58 33.5055C1273.81 66.3306 1324.7 122.312 1359.5 173.314C1466.85 222.222 1491.64 303.704 1490.08 339.811L1489.76 347.126L1483.07 344.171C1348.64 284.864 1224.83 303.111 1124.45 350.124C1023.93 397.205 947.062 473.091 907.142 528.518L905.994 530.111C912.771 554.243 916.491 580.436 916.509 607.809L919.595 602.726C1167.86 753.497 1280.85 955.514 1315.66 1156.65C1350.43 1357.58 1307.14 1557.33 1243.48 1703.99L1237.8 1701.53L1242.66 1704.78C1218.14 1741.45 1179.17 1765.11 1132.78 1779.4C1086.38 1793.69 1032.2 1798.73 976.607 1797.92C865.421 1796.28 747.628 1771.2 673.056 1748.56L674.016 1745.4L671.329 1742.14C766.363 1663.82 882.138 1550.77 938.986 1393.43C995.509 1236.98 994.045 1035.98 854.329 780.526C827.283 809.035 793.35 826 756.509 826C668.143 826 596.509 728.398 596.509 608C596.509 605.462 596.541 602.935 596.604 600.418L594.066 606.17C459.637 546.863 335.832 565.111 235.455 612.124C134.933 659.205 58.0623 735.091 18.1415 790.518L11.5577 799.659L9.19543 788.645C5.48462 771.342 2.95783 742.407 7.24675 711.242C11.5354 680.078 22.7048 646.235 46.8046 619.642L47.9736 620.701C47.451 600.438 51.7703 574.366 64.0026 543.127C85.556 488.083 131.889 416.336 221.038 330.4C266.091 286.971 311.326 266.091 355.028 261.428C398.687 256.77 440.28 268.353 478.001 288.909C549.39 327.814 607.656 399.247 641.555 456.366C670.641 415.44 711.394 390 756.509 390C767.53 390 778.291 391.518 788.686 394.41C780.677 373.357 780.3 336.957 799.579 287.723C821.132 232.679 867.466 160.932 956.615 74.9961C1001.67 31.5674 1046.9 10.6872 1090.6 6.02415C1134.26 1.3657 1175.86 12.949 1213.58 33.5055ZM1382.44 210.142C1378.72 203.536 1374.64 196.689 1370.23 189.683C1454.52 233.775 1478.01 298.539 1480 331.956C1345.17 274.983 1220.91 293.908 1120.21 341.068C1022.2 386.974 946.381 459.672 904.36 515.438C902.118 507.717 901.047 497.167 902.113 483.82C903.587 465.364 909.12 441.966 920.806 414.187C944.176 358.633 992.032 285.86 1080.48 200.6L1079.09 199.159C1166.78 171.937 1267.99 169.49 1376.07 217.171L1389.82 223.237L1382.44 210.142ZM1017.46 223.124C1031.76 216.424 1046.54 210.309 1061.76 204.919C980.052 285.948 934.534 355.766 911.588 410.309C899.576 438.863 893.72 463.305 892.145 483.024C891.914 485.908 891.775 488.701 891.722 491.398C871.236 447.388 839.494 414.064 802.013 398.942C842.436 343.76 918.481 269.48 1017.46 223.124ZM795.506 407.955L794.951 406.941C782.616 402.394 769.722 400 756.509 400C716.273 400 679.006 422.199 651.433 459.767C649.955 461.782 648.505 463.84 647.086 465.939L654.24 478.64L642.295 473.371C620.085 509.515 606.509 556.443 606.509 608C606.509 666.294 623.865 718.67 651.433 756.232C679.006 793.8 716.273 816 756.509 816C796.744 816 834.011 793.8 861.584 756.232C889.153 718.67 906.509 666.294 906.509 608C906.509 549.705 889.153 497.33 861.584 459.767C843.315 434.875 820.789 416.73 795.964 407.319L795.506 407.955ZM1091.67 15.9677C1050.55 20.3547 1007.3 40.0244 963.555 82.1957C875.104 167.459 829.77 238.046 808.89 291.369C790.798 337.573 791.22 370.332 797.237 388.601C839.233 332.815 915.106 260.018 1013.21 214.068C1112.2 167.706 1233.97 148.631 1366.17 202.129C1332.51 146.625 1276.44 79.152 1208.79 42.2863C1172.38 22.4429 1132.82 11.5762 1091.67 15.9677ZM590.217 593.624C583.226 555.261 554.174 477.393 485.842 435.541C411.226 432.348 342.307 450.225 281.879 478.528C181.357 525.609 104.486 601.495 64.5656 656.922L59.9297 663.359L56.1221 656.4C52.7951 650.32 50.2221 642.358 48.9049 632.619C30.1948 656.207 20.9335 685.137 17.1534 712.605C13.8727 736.444 14.7623 758.898 17.0172 775.253C59.3576 719.785 134.476 648.376 231.213 603.068C331.709 555.999 455.685 537.057 590.217 593.624ZM597.727 580.96C601.55 538.863 614.181 500.486 633.029 469.357C589.277 450.93 546.682 440.671 505.689 436.882C561.314 478.066 588.211 541.769 597.727 580.96ZM686.874 1742.23C761.089 1763.77 872.022 1786.38 976.754 1787.92C1031.75 1788.72 1084.8 1783.72 1129.83 1769.85C1174.86 1755.98 1211.51 1733.37 1234.35 1699.22L1234.58 1699.37C1244.86 1675.64 1254.6 1650.51 1263.55 1624.21C1243.38 1645.26 1216.45 1660.09 1185.63 1670.14C1145.62 1683.19 1098.68 1688.31 1050.44 1688.37C953.986 1688.5 851.342 1668.41 786.198 1649.83C752.935 1684.8 718.845 1715.48 686.874 1742.23ZM1312.03 1408.42C1304.49 1475.51 1290.25 1539.71 1271.87 1598.68L1271.29 1598.31C1252.32 1628.02 1221.18 1648.03 1182.53 1660.64C1143.87 1673.24 1098.08 1678.31 1050.43 1678.37C957.573 1678.5 858.621 1659.61 793.92 1641.61C849.531 1581.76 902.164 1509.75 937.868 1423.91C990.189 1450.73 1068.47 1480.36 1141.5 1485.91C1179.64 1488.81 1216.73 1485.18 1248.02 1470.8C1274.78 1458.51 1297.07 1438.44 1312.03 1408.42ZM941.648 1414.61C993.258 1441.17 1070.64 1470.49 1142.26 1475.94C1179.42 1478.76 1214.64 1475.13 1243.84 1461.72C1272.88 1448.37 1296.27 1425.22 1309.81 1388.28L1313.95 1389.79C1320.91 1314.89 1319.36 1236.68 1305.8 1158.35C1300.7 1128.87 1293.9 1099.36 1285.2 1070C1277.35 1106.01 1260.35 1130.95 1237.48 1147.17C1213.46 1164.2 1183.47 1171.25 1152.01 1172.05C1092.66 1173.56 1026.6 1152.84 981.091 1132.13C990.276 1231.53 976.361 1319.41 948.391 1396.82C946.226 1402.82 943.977 1408.75 941.648 1414.61ZM1132.41 792.101C1206.26 877.22 1254.46 969.461 1283.19 1063.31L1276.59 1062.1C1269.79 1099.19 1253.44 1123.59 1231.69 1139.01C1209.83 1154.51 1182 1161.28 1151.76 1162.05C1092.16 1163.56 1024.75 1141.73 979.924 1120.56C973.429 1061.25 958.731 997.892 933.959 930.277C966.429 938.447 1014.59 941.353 1055.49 923.429C1076.41 914.263 1095.44 899.635 1109.37 877.527C1122.79 856.223 1131.28 828.26 1132.41 792.101ZM932.888 927.37L934.775 920.163C965.969 928.329 1012.62 931.295 1051.48 914.27C1070.8 905.803 1088.18 892.407 1100.91 872.198C1113.65 851.968 1121.92 824.604 1122.51 787.92L1128.85 788.021C1073.2 724.759 1003.26 665.502 916.475 612.534C915.518 676.431 894.384 733.576 861.4 772.624C891.06 826.518 914.649 878.073 932.888 927.37ZM356.089 271.372C314.974 275.759 271.726 295.428 227.978 337.6C139.527 422.863 94.1941 493.45 73.3142 546.773C55.2221 592.977 55.6435 625.735 61.661 644.005C103.657 588.218 179.53 515.422 277.638 469.472C376.625 423.109 498.395 404.035 630.594 457.533C596.937 402.029 540.864 334.556 473.216 297.69C436.803 277.847 397.247 266.98 356.089 271.372Z" fill="black"/>
<path d="M1359.5 173.314L1355.37 176.132L1356.15 177.286L1357.42 177.865L1359.5 173.314ZM1213.58 33.5055L1211.18 37.8959L1211.18 37.8959L1213.58 33.5055ZM1490.08 339.811L1485.08 339.596L1485.08 339.596L1490.08 339.811ZM1489.76 347.126L1487.75 351.7L1494.44 354.655L1494.76 347.341L1489.76 347.126ZM1483.07 344.171L1481.05 348.745L1481.05 348.745L1483.07 344.171ZM1124.45 350.124L1122.33 345.596L1122.33 345.596L1124.45 350.124ZM907.142 528.518L911.199 531.44L911.199 531.44L907.142 528.518ZM905.994 530.111L901.937 527.189L900.529 529.144L901.18 531.463L905.994 530.111ZM916.509 607.809L911.509 607.812L911.52 625.656L920.782 610.404L916.509 607.809ZM919.595 602.726L922.191 598.452L917.917 595.857L915.322 600.131L919.595 602.726ZM1315.66 1156.65L1310.73 1157.5L1310.73 1157.5L1315.66 1156.65ZM1243.48 1703.99L1241.49 1708.58L1246.07 1710.57L1248.06 1705.98L1243.48 1703.99ZM1237.8 1701.53L1239.79 1696.94L1235.02 1705.68L1237.8 1701.53ZM1242.66 1704.78L1246.82 1707.56L1249.6 1703.4L1245.44 1700.62L1242.66 1704.78ZM1132.78 1779.4L1134.25 1784.18L1134.25 1784.18L1132.78 1779.4ZM976.607 1797.92L976.533 1802.91L976.533 1802.91L976.607 1797.92ZM673.056 1748.56L668.272 1747.11L666.819 1751.89L671.604 1753.35L673.056 1748.56ZM674.016 1745.4L678.8 1746.85L679.579 1744.29L677.874 1742.22L674.016 1745.4ZM671.329 1742.14L668.149 1738.28L664.29 1741.46L667.47 1745.32L671.329 1742.14ZM938.986 1393.43L943.689 1395.12L943.689 1395.12L938.986 1393.43ZM854.329 780.526L858.715 778.126L855.423 772.107L850.701 777.084L854.329 780.526ZM596.604 600.418L601.602 600.544L592.029 598.4L596.604 600.418ZM594.066 606.17L592.048 610.745L596.622 612.763L598.641 608.189L594.066 606.17ZM235.455 612.124L237.576 616.652L235.455 612.124ZM18.1415 790.518L22.1987 793.44L22.1987 793.44L18.1415 790.518ZM11.5577 799.659L6.66891 800.708L9.03122 811.722L15.615 802.581L11.5577 799.659ZM9.19543 788.645L4.3066 789.693L4.3066 789.693L9.19543 788.645ZM7.24675 711.242L12.2001 711.923L12.2001 711.923L7.24675 711.242ZM46.8046 619.642L50.1623 615.937L46.4573 612.579L43.0997 616.284L46.8046 619.642ZM47.9736 620.701L44.6159 624.406L53.2731 632.252L52.9719 620.573L47.9736 620.701ZM64.0026 543.127L68.6584 544.95L68.6584 544.95L64.0026 543.127ZM221.038 330.4L217.568 326.8L217.568 326.8L221.038 330.4ZM355.028 261.428L354.497 256.456L354.497 256.456L355.028 261.428ZM478.001 288.909L480.394 284.519L478.001 288.909ZM641.555 456.366L637.255 458.918L641.178 465.528L645.63 459.263L641.555 456.366ZM788.686 394.41L787.346 399.227L796.876 401.878L793.359 392.632L788.686 394.41ZM799.579 287.723L804.235 289.546L804.235 289.546L799.579 287.723ZM956.615 74.9961L960.085 78.5959L960.085 78.5959L956.615 74.9961ZM1090.6 6.02415L1091.13 10.9959L1091.13 10.9959L1090.6 6.02415ZM1370.23 189.683L1372.55 185.252L1356.12 176.66L1366 192.347L1370.23 189.683ZM1382.44 210.142L1386.8 207.689L1386.8 207.689L1382.44 210.142ZM1480 331.956L1478.06 336.562L1485.47 339.696L1485 331.659L1480 331.956ZM1120.21 341.068L1118.09 336.54L1118.09 336.54L1120.21 341.068ZM904.36 515.438L899.559 516.832L902.344 526.422L908.354 518.447L904.36 515.438ZM902.113 483.82L907.097 484.218L907.097 484.218L902.113 483.82ZM920.806 414.187L916.197 412.248L916.197 412.248L920.806 414.187ZM1080.48 200.6L1083.95 204.199L1087.55 200.729L1084.08 197.129L1080.48 200.6ZM1079.09 199.159L1077.61 194.384L1069.86 196.789L1075.49 202.629L1079.09 199.159ZM1376.07 217.171L1378.08 212.596L1378.08 212.596L1376.07 217.171ZM1389.82 223.237L1387.8 227.811L1401.55 233.877L1394.17 220.783L1389.82 223.237ZM1061.76 204.919L1065.28 208.469L1060.09 200.206L1061.76 204.919ZM1017.46 223.124L1015.33 218.596L1015.33 218.596L1017.46 223.124ZM911.588 410.309L906.98 408.37L906.98 408.37L911.588 410.309ZM892.145 483.024L887.161 482.626L887.161 482.626L892.145 483.024ZM891.722 491.398L887.19 493.508L896.722 491.496L891.722 491.398ZM802.013 398.942L797.979 395.988L794.18 401.174L800.142 403.579L802.013 398.942ZM794.951 406.941L799.337 404.541L798.438 402.897L796.68 402.249L794.951 406.941ZM795.506 407.955L791.12 410.355L794.927 417.314L799.563 410.877L795.506 407.955ZM651.433 459.767L647.402 456.809L647.402 456.809L651.433 459.767ZM647.086 465.939L642.944 463.138L641.213 465.699L642.73 468.392L647.086 465.939ZM654.24 478.64L652.222 483.215L665.971 489.281L658.596 476.187L654.24 478.64ZM642.295 473.371L644.313 468.796L640.32 467.034L638.035 470.753L642.295 473.371ZM651.433 756.232L655.464 753.274L655.464 753.274L651.433 756.232ZM861.584 756.232L857.553 753.274L857.553 753.274L861.584 756.232ZM861.584 459.767L857.553 462.726L857.553 462.726L861.584 459.767ZM795.964 407.319L797.736 402.644L794.149 401.284L791.906 404.397L795.964 407.319ZM963.555 82.1957L960.085 78.5959L960.085 78.5959L963.555 82.1957ZM1091.67 15.9677L1091.13 10.9959L1091.13 10.9959L1091.67 15.9677ZM808.89 291.369L804.235 289.546L804.235 289.546L808.89 291.369ZM797.237 388.601L792.488 390.165L795.48 399.249L801.232 391.608L797.237 388.601ZM1013.21 214.068L1011.09 209.54L1013.21 214.068ZM1366.17 202.129L1364.29 206.764L1378.25 212.413L1370.45 199.537L1366.17 202.129ZM1208.79 42.2863L1211.18 37.8959L1211.18 37.8959L1208.79 42.2863ZM590.217 593.624L588.279 598.233L596.792 601.813L595.136 592.728L590.217 593.624ZM485.842 435.541L488.454 431.277L487.35 430.601L486.056 430.545L485.842 435.541ZM281.879 478.528L279.758 474L279.758 474L281.879 478.528ZM64.5656 656.922L68.6228 659.844L68.6228 659.844L64.5656 656.922ZM59.9297 663.359L55.5434 665.759L59.351 672.717L63.9869 666.281L59.9297 663.359ZM56.1221 656.4L60.5084 654L60.5084 654L56.1221 656.4ZM48.9049 632.619L53.8598 631.949L52.2857 620.311L44.9876 629.512L48.9049 632.619ZM17.1534 712.605L12.2001 711.923L12.2001 711.923L17.1534 712.605ZM17.0172 775.253L12.0641 775.936L13.7045 787.833L20.9917 778.287L17.0172 775.253ZM231.213 603.068L233.334 607.596L233.334 607.596L231.213 603.068ZM597.727 580.96L592.869 582.14L602.707 581.412L597.727 580.96ZM633.029 469.357L637.306 471.947L640.304 466.996L634.97 464.749L633.029 469.357ZM505.689 436.882L506.15 431.903L488.339 430.257L502.714 440.901L505.689 436.882ZM976.754 1787.92L976.827 1782.92L976.827 1782.92L976.754 1787.92ZM686.874 1742.23L683.665 1738.4L676.468 1744.42L685.48 1747.03L686.874 1742.23ZM1129.83 1769.85L1128.36 1765.07L1128.36 1765.07L1129.83 1769.85ZM1234.35 1699.22L1237.13 1695.06L1232.98 1692.28L1230.2 1696.44L1234.35 1699.22ZM1234.58 1699.37L1231.8 1703.53L1236.79 1706.86L1239.17 1701.36L1234.58 1699.37ZM1263.55 1624.21L1268.29 1625.83L1259.94 1620.75L1263.55 1624.21ZM1185.63 1670.14L1187.18 1674.9L1187.18 1674.9L1185.63 1670.14ZM1050.44 1688.37L1050.43 1683.37L1050.43 1683.37L1050.44 1688.37ZM786.198 1649.83L787.569 1645.02L784.66 1644.19L782.575 1646.38L786.198 1649.83ZM1271.87 1598.68L1269.18 1602.89L1274.7 1606.42L1276.65 1600.17L1271.87 1598.68ZM1312.03 1408.42L1317 1408.98L1307.56 1406.19L1312.03 1408.42ZM1271.29 1598.31L1273.99 1594.09L1269.77 1591.4L1267.08 1595.62L1271.29 1598.31ZM1182.53 1660.64L1180.98 1655.88L1180.98 1655.88L1182.53 1660.64ZM1050.43 1678.37L1050.43 1683.37L1050.43 1683.37L1050.43 1678.37ZM793.92 1641.61L790.257 1638.21L784.665 1644.23L792.58 1646.43L793.92 1641.61ZM937.868 1423.91L940.149 1419.46L935.331 1416.99L933.251 1421.99L937.868 1423.91ZM1141.5 1485.91L1141.88 1480.92L1141.88 1480.92L1141.5 1485.91ZM1248.02 1470.8L1245.93 1466.26L1245.93 1466.26L1248.02 1470.8ZM1142.26 1475.94L1142.64 1470.95L1142.64 1470.95L1142.26 1475.94ZM941.648 1414.61L937.001 1412.77L935.328 1416.98L939.36 1419.06L941.648 1414.61ZM1243.84 1461.72L1241.76 1457.17L1241.76 1457.17L1243.84 1461.72ZM1309.81 1388.28L1311.53 1383.58L1306.84 1381.86L1305.12 1386.56L1309.81 1388.28ZM1313.95 1389.79L1312.23 1394.49L1318.32 1396.72L1318.93 1390.26L1313.95 1389.79ZM1305.8 1158.35L1310.73 1157.5L1310.73 1157.5L1305.8 1158.35ZM1285.2 1070L1290 1068.58L1280.32 1068.94L1285.2 1070ZM1237.48 1147.17L1234.59 1143.09L1234.59 1143.09L1237.48 1147.17ZM1152.01 1172.05L1152.14 1177.05L1152.14 1177.05L1152.01 1172.05ZM981.091 1132.13L983.163 1127.58L975.32 1124.01L976.113 1132.59L981.091 1132.13ZM948.391 1396.82L943.689 1395.12L943.689 1395.12L948.391 1396.82ZM1283.19 1063.31L1282.29 1068.23L1290.38 1069.71L1287.97 1061.84L1283.19 1063.31ZM1132.41 792.101L1136.19 788.824L1127.82 779.172L1127.42 791.944L1132.41 792.101ZM1276.59 1062.1L1277.49 1057.18L1272.57 1056.28L1271.67 1061.2L1276.59 1062.1ZM1231.69 1139.01L1228.8 1134.93L1228.8 1134.93L1231.69 1139.01ZM1151.76 1162.05L1151.63 1157.05L1151.63 1157.05L1151.76 1162.05ZM979.924 1120.56L974.954 1121.11L975.258 1123.89L977.789 1125.09L979.924 1120.56ZM933.959 930.277L935.179 925.428L926.012 923.122L929.264 931.997L933.959 930.277ZM1055.49 923.429L1053.48 918.85L1053.48 918.85L1055.49 923.429ZM1109.37 877.527L1113.6 880.192L1113.6 880.192L1109.37 877.527ZM934.775 920.163L936.041 915.326L931.204 914.06L929.938 918.897L934.775 920.163ZM932.888 927.37L928.199 929.105L933.706 943.99L937.725 928.636L932.888 927.37ZM1051.48 914.27L1053.48 918.85L1053.48 918.85L1051.48 914.27ZM1100.91 872.198L1105.14 874.862L1105.14 874.862L1100.91 872.198ZM1122.51 787.92L1122.59 782.92L1117.59 782.84L1117.51 787.839L1122.51 787.92ZM1128.85 788.021L1128.77 793.021L1140.06 793.202L1132.6 784.719L1128.85 788.021ZM916.475 612.534L919.08 608.266L911.606 603.705L911.475 612.459L916.475 612.534ZM861.4 772.624L857.58 769.397L855.362 772.023L857.019 775.035L861.4 772.624ZM227.978 337.6L231.449 341.199L231.449 341.199L227.978 337.6ZM356.089 271.372L356.619 276.343L356.619 276.343L356.089 271.372ZM73.3142 546.773L68.6584 544.95L68.6584 544.95L73.3142 546.773ZM61.661 644.005L56.912 645.569L59.9039 654.653L65.6557 647.012L61.661 644.005ZM277.638 469.472L279.758 474L279.758 474L277.638 469.472ZM630.594 457.533L628.718 462.168L642.677 467.817L634.869 454.94L630.594 457.533ZM473.216 297.69L470.823 302.081L470.823 302.081L473.216 297.69ZM1363.63 170.497C1328.59 119.134 1277.16 62.4591 1215.97 29.1152L1211.18 37.8959C1270.47 70.202 1320.82 125.49 1355.37 176.132L1363.63 170.497ZM1495.07 340.027C1496.72 301.807 1470.71 218.484 1361.57 168.764L1357.42 177.865C1462.99 225.96 1486.55 305.6 1485.08 339.596L1495.07 340.027ZM1494.76 347.341L1495.07 340.027L1485.08 339.596L1484.77 346.91L1494.76 347.341ZM1481.05 348.745L1487.75 351.7L1491.78 342.551L1485.08 339.596L1481.05 348.745ZM1126.58 354.652C1225.91 308.126 1348.19 290.131 1481.05 348.745L1485.08 339.596C1349.08 279.596 1223.75 298.096 1122.33 345.596L1126.58 354.652ZM911.199 531.44C950.707 476.586 1026.95 401.314 1126.58 354.652L1122.33 345.596C1020.92 393.096 943.418 469.596 903.084 525.596L911.199 531.44ZM910.051 533.034L911.199 531.44L903.084 525.596L901.937 527.189L910.051 533.034ZM921.509 607.806C921.491 579.983 917.71 553.337 910.808 528.759L901.18 531.463C907.832 555.149 911.492 580.888 911.509 607.812L921.509 607.806ZM915.322 600.131L912.235 605.213L920.782 610.404L923.869 605.321L915.322 600.131ZM1320.58 1155.79C1285.54 953.278 1171.73 749.994 922.191 598.452L917 607C1164 757 1276.16 957.75 1310.73 1157.5L1320.58 1155.79ZM1248.06 1705.98C1312.02 1558.65 1355.56 1357.91 1320.58 1155.79L1310.73 1157.5C1345.3 1357.25 1302.27 1556 1238.89 1702L1248.06 1705.98ZM1235.81 1706.11L1241.49 1708.58L1245.47 1699.4L1239.79 1696.94L1235.81 1706.11ZM1245.44 1700.62L1240.58 1697.37L1235.02 1705.68L1239.89 1708.94L1245.44 1700.62ZM1134.25 1784.18C1181.33 1769.68 1221.45 1745.49 1246.82 1707.56L1238.51 1702C1214.82 1737.41 1177.02 1760.55 1131.3 1774.63L1134.25 1784.18ZM976.533 1802.91C1032.42 1803.74 1087.18 1798.68 1134.25 1784.18L1131.3 1774.63C1085.59 1788.71 1031.98 1793.73 976.68 1792.92L976.533 1802.91ZM671.604 1753.35C746.484 1776.08 864.755 1801.27 976.533 1802.91L976.68 1792.92C866.088 1791.29 748.772 1766.32 674.509 1743.78L671.604 1753.35ZM669.231 1743.95L668.272 1747.11L677.841 1750.01L678.8 1746.85L669.231 1743.95ZM667.47 1745.32L670.157 1748.58L677.874 1742.22L675.187 1738.96L667.47 1745.32ZM934.284 1391.73C877.898 1547.79 762.972 1660.13 668.149 1738.28L674.509 1746C769.754 1667.5 886.377 1553.75 943.689 1395.12L934.284 1391.73ZM849.942 782.925C989.073 1037.31 990.251 1236.82 934.284 1391.73L943.689 1395.12C1000.77 1237.14 999.016 1034.65 858.715 778.126L849.942 782.925ZM756.509 831C794.976 831 830.157 813.27 857.956 783.967L850.701 777.084C824.408 804.8 791.723 821 756.509 821V831ZM591.509 608C591.509 669.151 609.694 724.713 639.341 765.108C668.986 805.499 710.352 831 756.509 831V821C714.3 821 675.666 797.7 647.402 759.191C619.141 720.684 601.509 667.247 601.509 608H591.509ZM591.605 600.293C591.541 602.851 591.509 605.42 591.509 608H601.509C601.509 605.504 601.54 603.019 601.602 600.544L591.605 600.293ZM598.641 608.189L601.178 602.436L592.029 598.4L589.491 604.152L598.641 608.189ZM237.576 616.652C336.914 570.125 459.189 552.131 592.048 610.745L596.084 601.596C460.084 541.596 334.751 560.096 233.334 607.596L237.576 616.652ZM22.1987 793.44C61.707 738.586 137.948 663.314 237.576 616.652L233.334 607.596C131.918 655.096 54.4176 731.596 14.0843 787.596L22.1987 793.44ZM15.615 802.581L22.1987 793.44L14.0843 787.596L7.50053 796.737L15.615 802.581ZM4.3066 789.693L6.66891 800.708L16.4466 798.611L14.0843 787.596L4.3066 789.693ZM2.29344 710.56C-2.07914 742.333 0.480768 771.854 4.3066 789.693L14.0843 787.596C10.4885 770.83 7.9948 742.481 12.2001 711.923L2.29344 710.56ZM43.0997 616.284C18.0999 643.87 6.66552 678.79 2.29344 710.56L12.2001 711.923C16.4054 681.365 27.3097 648.6 50.5096 623L43.0997 616.284ZM51.3312 616.997L50.1623 615.937L43.447 623.347L44.6159 624.406L51.3312 616.997ZM59.3468 541.304C46.9237 573.03 42.4321 599.77 42.9752 620.83L52.9719 620.573C52.4699 601.106 56.617 575.701 68.6584 544.95L59.3468 541.304ZM217.568 326.8C128.07 413.073 81.237 485.4 59.3468 541.304L68.6584 544.95C89.875 490.766 135.708 419.6 224.508 334L217.568 326.8ZM354.497 256.456C309.502 261.257 263.273 282.743 217.568 326.8L224.508 334C268.909 291.2 313.15 270.925 355.558 266.4L354.497 256.456ZM480.394 284.519C442.018 263.606 399.407 251.664 354.497 256.456L355.558 266.4C397.967 261.875 438.542 273.1 475.608 293.3L480.394 284.519ZM645.855 453.814C611.712 396.284 552.874 324.018 480.394 284.519L475.608 293.3C545.906 331.61 603.601 402.21 637.255 458.918L645.855 453.814ZM756.509 385C709.376 385 667.245 411.587 637.479 453.47L645.63 459.263C674.036 419.294 713.412 395 756.509 395V385ZM790.026 389.593C779.205 386.582 767.993 385 756.509 385V395C767.067 395 777.378 396.454 787.346 399.227L790.026 389.593ZM794.923 285.9C775.386 335.794 775.403 373.558 784.012 396.188L793.359 392.632C785.95 373.157 785.215 338.119 804.235 289.546L794.923 285.9ZM953.144 71.3963C863.646 157.669 816.813 229.996 794.923 285.9L804.235 289.546C825.451 235.363 871.285 164.196 960.085 78.5959L953.144 71.3963ZM1090.07 1.05237C1045.08 5.8534 998.849 27.3391 953.144 71.3963L960.085 78.5959C1004.48 35.7958 1048.73 15.5209 1091.13 10.9959L1090.07 1.05237ZM1215.97 29.1152C1177.59 8.20209 1134.98 -3.73954 1090.07 1.05237L1091.13 10.9959C1133.54 6.47094 1174.12 17.6958 1211.18 37.8959L1215.97 29.1152ZM1366 192.347C1370.37 199.286 1374.4 206.062 1378.08 212.596L1386.8 207.689C1383.04 201.009 1378.92 194.092 1374.46 187.019L1366 192.347ZM1485 331.659C1482.9 296.507 1458.41 230.166 1372.55 185.252L1367.91 194.113C1450.64 237.384 1473.12 300.57 1475.01 332.254L1485 331.659ZM1122.33 345.596C1222.01 298.912 1344.78 280.245 1478.06 336.562L1481.95 327.351C1345.56 269.72 1219.8 288.904 1118.09 336.54L1122.33 345.596ZM908.354 518.447C949.975 463.211 1025.19 391.096 1122.33 345.596L1118.09 336.54C1019.22 382.851 942.787 456.134 900.367 512.429L908.354 518.447ZM897.129 483.422C896.028 497.208 897.107 508.39 899.559 516.832L909.162 514.043C907.129 507.044 906.066 497.126 907.097 484.218L897.129 483.422ZM916.197 412.248C904.348 440.414 898.653 464.335 897.129 483.422L907.097 484.218C908.521 466.393 913.891 443.517 925.415 416.126L916.197 412.248ZM1077.01 197C988.21 282.6 939.895 355.916 916.197 412.248L925.415 416.126C948.457 361.351 995.854 289.121 1083.95 204.199L1077.01 197ZM1075.49 202.629L1076.88 204.07L1084.08 197.129L1082.69 195.689L1075.49 202.629ZM1378.08 212.596C1268.79 164.377 1166.32 166.843 1077.61 194.384L1080.57 203.935C1167.24 177.031 1267.19 174.602 1374.05 221.745L1378.08 212.596ZM1391.83 218.662L1378.08 212.596L1374.05 221.745L1387.8 227.811L1391.83 218.662ZM1378.08 212.596L1385.46 225.69L1394.17 220.783L1386.8 207.689L1378.08 212.596ZM1060.09 200.206C1044.71 205.653 1029.78 211.831 1015.33 218.596L1019.58 227.652C1033.74 221.018 1048.37 214.965 1063.43 209.632L1060.09 200.206ZM916.197 412.248C938.829 358.45 983.913 289.16 1065.28 208.469L1058.24 201.369C976.19 282.735 930.238 353.082 906.98 408.37L916.197 412.248ZM897.129 483.422C898.653 464.335 904.348 440.414 916.197 412.248L906.98 408.37C894.805 437.311 888.786 462.276 887.161 482.626L897.129 483.422ZM896.722 491.496C896.772 488.903 896.906 486.211 897.129 483.422L887.161 482.626C886.923 485.606 886.778 488.499 886.723 491.301L896.722 491.496ZM800.142 403.579C836.174 418.116 867.099 450.349 887.19 493.508L896.255 489.288C875.373 444.428 842.814 410.012 803.884 394.306L800.142 403.579ZM1015.33 218.596C915.477 265.366 838.81 340.249 797.979 395.988L806.046 401.897C846.062 347.271 921.486 273.594 1019.58 227.652L1015.33 218.596ZM790.565 409.341L791.12 410.355L799.892 405.555L799.337 404.541L790.565 409.341ZM756.509 405C769.11 405 781.419 407.282 793.222 411.632L796.68 402.249C783.813 397.506 770.335 395 756.509 395V405ZM655.464 462.726C682.345 426.101 718.245 405 756.509 405V395C714.302 395 675.668 418.298 647.402 456.809L655.464 462.726ZM651.228 468.739C652.612 466.693 654.024 464.688 655.464 462.726L647.402 456.809C645.885 458.876 644.399 460.987 642.944 463.138L651.228 468.739ZM658.596 476.187L651.443 463.485L642.73 468.392L649.883 481.094L658.596 476.187ZM640.277 477.945L652.222 483.215L656.258 474.066L644.313 468.796L640.277 477.945ZM611.509 608C611.509 557.296 624.864 511.287 646.555 475.988L638.035 470.753C615.305 507.743 601.509 555.589 601.509 608H611.509ZM655.464 753.274C628.588 716.655 611.509 665.342 611.509 608H601.509C601.509 667.247 619.141 720.684 647.403 759.191L655.464 753.274ZM756.509 811C718.245 811 682.345 789.899 655.464 753.274L647.402 759.191C675.668 797.702 714.302 821 756.509 821V811ZM857.553 753.274C830.673 789.899 794.773 811 756.509 811V821C798.716 821 837.35 797.702 865.615 759.191L857.553 753.274ZM901.509 608C901.509 665.342 884.429 716.655 857.553 753.274L865.615 759.191C893.876 720.684 911.509 667.247 911.509 608H901.509ZM857.553 462.726C884.429 499.345 901.509 550.658 901.509 608H911.509C911.509 548.753 893.876 495.315 865.615 456.809L857.553 462.726ZM794.191 411.995C817.956 421.003 839.747 438.464 857.553 462.726L865.615 456.809C846.882 431.286 823.621 412.456 797.736 402.644L794.191 411.995ZM799.563 410.877L800.021 410.241L791.906 404.397L791.449 405.033L799.563 410.877ZM967.025 85.7955C1010.12 44.253 1052.37 25.1885 1092.2 20.9395L1091.13 10.9959C1048.73 15.5209 1004.48 35.7958 960.085 78.5959L967.025 85.7955ZM813.546 293.192C834.089 240.729 878.923 170.723 967.025 85.7955L960.085 78.5959C871.285 164.196 825.451 235.363 804.235 289.546L813.546 293.192ZM801.986 387.037C796.452 370.235 795.715 338.73 813.546 293.192L804.235 289.546C785.882 336.415 785.987 370.428 792.488 390.165L801.986 387.037ZM1011.09 209.54C912.119 255.896 835.638 329.277 793.243 385.594L801.232 391.608C842.828 336.352 918.092 264.141 1015.33 218.596L1011.09 209.54ZM1368.05 197.494C1234.31 143.374 1111.08 162.712 1011.09 209.54L1015.33 218.596C1113.33 172.699 1233.63 153.888 1364.29 206.764L1368.05 197.494ZM1206.4 46.6767C1272.98 82.958 1328.48 149.619 1361.89 204.722L1370.45 199.537C1336.55 143.632 1279.9 75.346 1211.18 37.8959L1206.4 46.6767ZM1092.2 20.9395C1132.1 16.6814 1170.64 27.19 1206.4 46.6767L1211.18 37.8959C1174.12 17.6958 1133.54 6.47094 1091.13 10.9959L1092.2 20.9395ZM595.136 592.728C588.013 553.643 558.483 474.169 488.454 431.277L483.231 439.805C549.866 480.617 578.438 556.88 585.298 594.521L595.136 592.728ZM486.056 430.545C410.493 427.312 340.774 445.422 279.758 474L284 483.056C343.841 455.028 411.96 437.384 485.629 440.536L486.056 430.545ZM279.758 474C178.342 521.5 100.842 598 60.5084 654L68.6228 659.844C108.131 604.99 184.372 529.718 284 483.056L279.758 474ZM60.5084 654L55.8725 660.436L63.9869 666.281L68.6228 659.844L60.5084 654ZM64.316 660.959L60.5084 654L51.7358 658.8L55.5434 665.759L64.316 660.959ZM60.5084 654C57.5321 648.56 55.1125 641.211 53.8598 631.949L43.9501 633.289C45.3317 643.505 48.0581 652.079 51.7358 658.8L60.5084 654ZM44.9876 629.512C25.5493 654.018 16.0579 683.89 12.2001 711.923L22.1067 713.287C25.809 686.384 34.8404 658.397 52.8222 635.726L44.9876 629.512ZM12.2001 711.923C8.84931 736.272 9.755 759.188 12.0641 775.936L21.9704 774.57C19.7696 758.608 18.8961 736.617 22.1067 713.287L12.2001 711.923ZM20.9917 778.287C62.9364 723.337 137.453 652.503 233.334 607.596L229.093 598.54C131.499 644.249 55.7787 716.233 13.0428 772.219L20.9917 778.287ZM233.334 607.596C332.816 561.002 455.3 542.318 588.279 598.233L592.155 589.015C456.071 531.795 330.602 550.997 229.093 598.54L233.334 607.596ZM602.707 581.412C606.466 540.015 618.88 502.379 637.306 471.947L628.752 466.768C609.482 498.593 596.634 537.711 592.748 580.508L602.707 581.412ZM634.97 464.749C590.752 446.126 547.658 435.74 506.15 431.903L505.229 441.861C545.705 445.602 587.802 455.734 631.089 473.965L634.97 464.749ZM502.714 440.901C557.056 481.135 583.508 543.591 592.869 582.14L602.586 579.78C592.913 539.948 565.571 474.997 508.665 432.864L502.714 440.901ZM976.827 1782.92C872.668 1781.39 762.194 1758.89 688.267 1737.43L685.48 1747.03C759.985 1768.66 871.376 1791.37 976.68 1792.92L976.827 1782.92ZM1128.36 1765.07C1084 1778.73 1031.53 1783.72 976.827 1782.92L976.68 1792.92C1031.98 1793.73 1085.59 1788.71 1131.3 1774.63L1128.36 1765.07ZM1230.2 1696.44C1208.2 1729.33 1172.7 1751.41 1128.36 1765.07L1131.3 1774.63C1177.02 1760.55 1214.82 1737.41 1238.51 1702L1230.2 1696.44ZM1237.36 1695.22L1237.13 1695.06L1231.57 1703.38L1231.8 1703.53L1237.36 1695.22ZM1258.82 1622.6C1249.91 1648.77 1240.22 1673.77 1229.99 1697.39L1239.17 1701.36C1249.51 1677.5 1259.29 1652.25 1268.29 1625.83L1258.82 1622.6ZM1187.18 1674.9C1218.54 1664.67 1246.26 1649.47 1267.16 1627.67L1259.94 1620.75C1240.5 1641.04 1214.37 1655.51 1184.08 1665.39L1187.18 1674.9ZM1050.45 1693.37C1098.99 1693.31 1146.5 1688.17 1187.18 1674.9L1184.08 1665.39C1144.75 1678.22 1098.38 1683.31 1050.43 1683.37L1050.45 1693.37ZM784.826 1654.63C850.279 1673.3 953.4 1693.5 1050.45 1693.37L1050.43 1683.37C954.572 1683.5 852.406 1663.51 787.569 1645.02L784.826 1654.63ZM690.082 1746.07C722.153 1719.24 756.392 1688.42 789.821 1653.27L782.575 1646.38C749.479 1681.18 715.537 1711.73 683.665 1738.4L690.082 1746.07ZM1276.65 1600.17C1295.11 1540.92 1309.42 1476.41 1317 1408.98L1307.07 1407.86C1299.56 1474.62 1285.39 1538.5 1267.1 1597.19L1276.65 1600.17ZM1268.6 1602.52L1269.18 1602.89L1274.57 1594.46L1273.99 1594.09L1268.6 1602.52ZM1184.08 1665.39C1223.41 1652.56 1255.71 1632 1275.51 1601L1267.08 1595.62C1248.93 1624.04 1218.94 1643.5 1180.98 1655.88L1184.08 1665.39ZM1050.43 1683.37C1098.38 1683.31 1144.75 1678.22 1184.08 1665.39L1180.98 1655.88C1143 1668.27 1097.77 1673.31 1050.42 1673.37L1050.43 1683.37ZM792.58 1646.43C857.578 1664.51 956.998 1683.5 1050.43 1683.37L1050.42 1673.37C958.148 1673.5 859.664 1654.71 795.26 1636.79L792.58 1646.43ZM933.251 1421.99C897.835 1507.13 845.587 1578.66 790.257 1638.21L797.583 1645.01C853.475 1584.86 906.493 1512.36 942.485 1425.83L933.251 1421.99ZM1141.88 1480.92C1069.75 1475.44 992.14 1446.11 940.149 1419.46L935.587 1428.36C988.238 1455.35 1067.19 1485.27 1141.13 1490.9L1141.88 1480.92ZM1245.93 1466.26C1215.69 1480.16 1179.53 1483.79 1141.88 1480.92L1141.13 1490.9C1179.75 1493.83 1217.78 1490.2 1250.11 1475.35L1245.93 1466.26ZM1307.56 1406.19C1293.13 1435.15 1271.7 1454.42 1245.93 1466.26L1250.11 1475.35C1277.86 1462.59 1301.02 1441.74 1316.51 1410.65L1307.56 1406.19ZM1142.64 1470.95C1071.93 1465.58 995.215 1436.56 943.936 1410.17L939.36 1419.06C991.301 1445.79 1069.35 1475.41 1141.88 1480.92L1142.64 1470.95ZM1241.76 1457.17C1213.59 1470.11 1179.31 1473.74 1142.64 1470.95L1141.88 1480.92C1179.53 1483.79 1215.69 1480.16 1245.93 1466.26L1241.76 1457.17ZM1305.12 1386.56C1292.04 1422.25 1269.59 1444.38 1241.76 1457.17L1245.93 1466.26C1276.18 1452.36 1300.51 1428.2 1314.51 1390L1305.12 1386.56ZM1315.67 1385.1L1311.53 1383.58L1308.09 1392.97L1312.23 1394.49L1315.67 1385.1ZM1300.87 1159.21C1314.35 1237.05 1315.9 1314.81 1308.97 1389.33L1318.93 1390.26C1325.92 1314.96 1324.37 1236.32 1310.73 1157.5L1300.87 1159.21ZM1280.41 1071.42C1289.05 1100.59 1295.8 1129.91 1300.87 1159.21L1310.73 1157.5C1305.59 1127.83 1298.75 1098.14 1290 1068.58L1280.41 1071.42ZM1240.37 1151.24C1264.37 1134.23 1282 1108.15 1290.09 1071.07L1280.32 1068.94C1272.7 1103.86 1256.33 1127.67 1234.59 1143.09L1240.37 1151.24ZM1152.14 1177.05C1184.2 1176.23 1215.28 1169.04 1240.37 1151.24L1234.59 1143.09C1211.64 1159.35 1182.74 1166.27 1151.88 1167.05L1152.14 1177.05ZM979.02 1136.68C1024.88 1157.55 1091.72 1178.58 1152.14 1177.05L1151.88 1167.05C1093.59 1168.53 1028.33 1148.13 983.163 1127.58L979.02 1136.68ZM953.094 1398.52C981.303 1320.45 995.325 1231.83 986.07 1131.67L976.113 1132.59C985.227 1231.23 971.418 1318.38 943.689 1395.12L953.094 1398.52ZM946.295 1416.46C948.643 1410.54 950.91 1404.57 953.094 1398.52L943.689 1395.12C941.541 1401.07 939.311 1406.95 937.001 1412.77L946.295 1416.46ZM1287.97 1061.84C1259.05 967.363 1210.52 874.496 1136.19 788.824L1128.64 795.377C1202 879.944 1249.88 971.56 1278.41 1064.77L1287.97 1061.84ZM1275.69 1067.02L1282.29 1068.23L1284.09 1058.39L1277.49 1057.18L1275.69 1067.02ZM1234.59 1143.09C1257.53 1126.82 1274.51 1101.2 1281.51 1063L1271.67 1061.2C1265.08 1097.18 1249.35 1120.36 1228.8 1134.93L1234.59 1143.09ZM1151.88 1167.05C1182.74 1166.27 1211.64 1159.35 1234.59 1143.09L1228.8 1134.93C1208.01 1149.67 1181.27 1156.3 1151.63 1157.05L1151.88 1167.05ZM977.789 1125.09C1022.98 1146.42 1091.2 1168.59 1151.88 1167.05L1151.63 1157.05C1093.13 1158.54 1026.53 1137.04 982.058 1116.04L977.789 1125.09ZM929.264 931.997C953.908 999.262 968.506 1062.22 974.954 1121.11L984.894 1120.02C978.352 1060.27 963.554 996.522 938.654 928.557L929.264 931.997ZM1053.48 918.85C1013.95 936.173 967.019 933.44 935.179 925.428L932.739 935.126C965.839 943.455 1015.23 946.532 1057.5 928.009L1053.48 918.85ZM1105.14 874.862C1091.81 896.021 1073.6 910.033 1053.48 918.85L1057.5 928.009C1079.21 918.493 1099.08 903.249 1113.6 880.192L1105.14 874.862ZM1127.42 791.944C1126.3 827.398 1117.99 854.453 1105.14 874.862L1113.6 880.192C1127.58 857.993 1136.25 829.122 1137.41 792.258L1127.42 791.944ZM929.938 918.897L928.051 926.104L937.725 928.636L939.612 921.429L929.938 918.897ZM1049.47 909.691C1012.01 926.107 966.596 923.324 936.041 915.326L933.509 925C965.342 933.333 1013.24 936.483 1053.48 918.85L1049.47 909.691ZM1096.68 869.533C1084.54 888.793 1067.99 901.574 1049.47 909.691L1053.48 918.85C1073.6 910.033 1091.81 896.021 1105.14 874.862L1096.68 869.533ZM1117.51 787.839C1116.93 823.809 1108.83 850.231 1096.68 869.533L1105.14 874.862C1118.46 853.704 1126.91 825.4 1127.51 788L1117.51 787.839ZM1128.93 783.022L1122.59 782.92L1122.43 792.919L1128.77 793.021L1128.93 783.022ZM913.87 616.802C1000.26 669.525 1069.8 728.464 1125.09 791.324L1132.6 784.719C1076.6 721.054 1006.27 661.478 919.08 608.266L913.87 616.802ZM865.219 775.85C899.041 735.811 920.502 677.509 921.474 612.609L911.475 612.459C910.534 675.352 889.726 731.342 857.58 769.397L865.219 775.85ZM937.578 925.635C919.246 876.086 895.55 824.306 865.78 770.213L857.019 775.035C886.571 828.73 910.053 880.059 928.199 929.105L937.578 925.635ZM231.449 341.199C274.544 299.657 316.798 280.592 356.619 276.343L355.558 266.4C313.15 270.925 268.909 291.2 224.508 334L231.449 341.199ZM77.97 548.596C98.5131 496.133 143.346 426.127 231.449 341.199L224.508 334C135.708 419.6 89.8751 490.766 68.6584 544.95L77.97 548.596ZM66.4101 642.441C60.8761 625.639 60.1385 594.134 77.97 548.596L68.6584 544.95C50.3058 591.819 50.4109 625.832 56.912 645.569L66.4101 642.441ZM275.517 464.944C176.543 511.3 100.062 584.681 57.6664 640.998L65.6557 647.012C107.252 591.756 182.516 519.545 279.758 474L275.517 464.944ZM632.469 452.898C498.734 398.778 375.499 418.115 275.517 464.944L279.758 474C377.751 428.103 498.057 409.292 628.718 462.168L632.469 452.898ZM470.823 302.081C537.399 338.362 592.904 405.023 626.318 460.126L634.869 454.94C600.969 399.036 544.329 330.75 475.608 293.3L470.823 302.081ZM356.619 276.343C396.526 272.085 435.065 282.594 470.823 302.081L475.608 293.3C438.542 273.1 397.967 261.875 355.558 266.4L356.619 276.343Z" fill="black"/>
</svg>
